<svg width="100" height="100" viewBox="0 0 500 500" fill="none" xmlns="http://www.w3.org/2000/svg">
    <path d="M145 223H113V276L126.333 252.15H137L145 223Z" stroke="black" stroke-width="3" stroke-linecap="round"
        stroke-linejoin="round" />
    <path d="M141 238H127" stroke="black" stroke-width="3" stroke-linecap="round" stroke-linejoin="round" />
    <path
        d="M157.194 271V223.727H186.508V229.867H164.326V244.271H184.408V250.387H164.326V271H157.194ZM204.916 271.785C202.67 271.785 200.638 271.369 198.823 270.538C197.007 269.692 195.568 268.469 194.506 266.868C193.46 265.268 192.937 263.306 192.937 260.982C192.937 258.982 193.321 257.335 194.091 256.043C194.86 254.75 195.899 253.727 197.207 252.973C198.515 252.219 199.977 251.649 201.593 251.265C203.208 250.88 204.855 250.587 206.532 250.387C208.656 250.141 210.379 249.941 211.703 249.787C213.026 249.618 213.988 249.349 214.588 248.979C215.188 248.61 215.488 248.01 215.488 247.179V247.017C215.488 245.002 214.919 243.44 213.78 242.332C212.657 241.224 210.979 240.67 208.748 240.67C206.424 240.67 204.593 241.185 203.254 242.216C201.931 243.232 201.015 244.363 200.508 245.609L194.021 244.132C194.791 241.978 195.914 240.239 197.392 238.915C198.884 237.577 200.6 236.607 202.539 236.007C204.478 235.392 206.517 235.084 208.656 235.084C210.071 235.084 211.572 235.253 213.157 235.592C214.757 235.915 216.25 236.515 217.635 237.392C219.035 238.269 220.182 239.523 221.074 241.154C221.967 242.77 222.413 244.871 222.413 247.456V271H215.673V266.153H215.396C214.95 267.045 214.28 267.922 213.388 268.784C212.495 269.646 211.349 270.361 209.948 270.931C208.548 271.5 206.871 271.785 204.916 271.785ZM206.417 266.245C208.325 266.245 209.956 265.868 211.31 265.114C212.68 264.36 213.718 263.375 214.426 262.159C215.15 260.928 215.511 259.613 215.511 258.212V253.642C215.265 253.888 214.788 254.119 214.08 254.335C213.388 254.535 212.595 254.712 211.703 254.865C210.81 255.004 209.941 255.135 209.094 255.258C208.248 255.366 207.54 255.458 206.971 255.535C205.632 255.704 204.409 255.989 203.301 256.389C202.208 256.789 201.331 257.366 200.669 258.12C200.023 258.859 199.7 259.844 199.7 261.075C199.7 262.783 200.331 264.075 201.593 264.952C202.854 265.814 204.462 266.245 206.417 266.245ZM248.155 235.545V241.085H228.789V235.545H248.155ZM233.983 227.051H240.884V260.59C240.884 261.929 241.085 262.937 241.485 263.614C241.885 264.275 242.4 264.729 243.031 264.975C243.677 265.206 244.378 265.322 245.132 265.322C245.686 265.322 246.17 265.283 246.586 265.206C247.001 265.129 247.324 265.068 247.555 265.022L248.802 270.723C248.402 270.877 247.832 271.031 247.094 271.185C246.355 271.354 245.432 271.446 244.324 271.462C242.508 271.492 240.815 271.169 239.246 270.492C237.676 269.815 236.407 268.769 235.437 267.353C234.468 265.937 233.983 264.16 233.983 262.021V227.051ZM263.453 249.949V271H256.552V223.727H263.361V241.316H263.8C264.631 239.408 265.9 237.892 267.608 236.769C269.316 235.645 271.548 235.084 274.302 235.084C276.733 235.084 278.857 235.584 280.673 236.584C282.504 237.584 283.92 239.077 284.92 241.062C285.936 243.032 286.443 245.494 286.443 248.449V271H279.542V249.279C279.542 246.679 278.872 244.663 277.534 243.232C276.195 241.785 274.333 241.062 271.948 241.062C270.316 241.062 268.855 241.408 267.562 242.101C266.285 242.793 265.277 243.809 264.538 245.148C263.815 246.471 263.453 248.071 263.453 249.949ZM310.588 271.716C307.264 271.716 304.363 270.954 301.885 269.43C299.408 267.907 297.484 265.776 296.115 263.037C294.745 260.297 294.061 257.097 294.061 253.434C294.061 249.757 294.745 246.54 296.115 243.786C297.484 241.031 299.408 238.892 301.885 237.369C304.363 235.846 307.264 235.084 310.588 235.084C313.911 235.084 316.812 235.846 319.29 237.369C321.767 238.892 323.691 241.031 325.06 243.786C326.43 246.54 327.115 249.757 327.115 253.434C327.115 257.097 326.43 260.297 325.06 263.037C323.691 265.776 321.767 267.907 319.29 269.43C316.812 270.954 313.911 271.716 310.588 271.716ZM310.611 265.922C312.765 265.922 314.55 265.353 315.966 264.214C317.381 263.075 318.428 261.559 319.105 259.667C319.797 257.774 320.144 255.689 320.144 253.411C320.144 251.149 319.797 249.072 319.105 247.179C318.428 245.271 317.381 243.74 315.966 242.586C314.55 241.431 312.765 240.854 310.611 240.854C308.441 240.854 306.64 241.431 305.209 242.586C303.794 243.74 302.74 245.271 302.047 247.179C301.37 249.072 301.031 251.149 301.031 253.411C301.031 255.689 301.37 257.774 302.047 259.667C302.74 261.559 303.794 263.075 305.209 264.214C306.64 265.353 308.441 265.922 310.611 265.922ZM334.818 271V235.545H341.443V241.316H341.881C342.62 239.362 343.828 237.838 345.505 236.746C347.183 235.638 349.191 235.084 351.53 235.084C353.9 235.084 355.885 235.638 357.485 236.746C359.101 237.854 360.294 239.377 361.063 241.316H361.432C362.279 239.423 363.625 237.915 365.472 236.792C367.318 235.653 369.519 235.084 372.073 235.084C375.289 235.084 377.913 236.092 379.944 238.108C381.991 240.123 383.014 243.163 383.014 247.225V271H376.113V247.871C376.113 245.471 375.459 243.732 374.151 242.655C372.843 241.578 371.281 241.039 369.465 241.039C367.218 241.039 365.472 241.732 364.225 243.116C362.979 244.486 362.356 246.248 362.356 248.402V271H355.477V247.433C355.477 245.509 354.877 243.963 353.677 242.793C352.476 241.624 350.914 241.039 348.991 241.039C347.683 241.039 346.475 241.385 345.367 242.078C344.274 242.755 343.39 243.701 342.712 244.917C342.051 246.133 341.72 247.541 341.72 249.141V271H334.818Z"
        fill="black" />
</svg>